<svg xmlns="http://www.w3.org/2000/svg" viewBox="0 0 48 48"><defs><style>.cls-1,.cls-3{fill:none;}.cls-2{fill:#fff;}.cls-3{stroke:#0e0047;stroke-linecap:round;stroke-linejoin:round;stroke-width:2px;}</style></defs><title>eye</title><g id="Layer_2" data-name="Layer 2"><g id="Layer_1-2" data-name="Layer 1"><rect class="cls-1" width="48" height="48"/><path class="cls-2" d="M11,24a15.58,15.58,0,0,0,13,7V17A15.58,15.58,0,0,0,11,24Z"/><path class="cls-2" d="M24,17V31a15.58,15.58,0,0,0,13-7A15.58,15.58,0,0,0,24,17Z"/><path class="cls-3" d="M33,26.86a14.47,14.47,0,0,1-18,0"/><path class="cls-3" d="M33,21.14a14.47,14.47,0,0,0-18,0"/><line class="cls-3" x1="24" y1="30" x2="24" y2="33"/><line class="cls-3" x1="27.84" y1="29.48" x2="28.64" y2="32.37"/><line class="cls-3" x1="31.4" y1="27.96" x2="32.94" y2="30.54"/><line class="cls-3" x1="20.16" y1="29.48" x2="19.36" y2="32.37"/><line class="cls-3" x1="16.6" y1="27.96" x2="15.06" y2="30.54"/></g></g></svg>