<svg width="232" height="57" viewBox="0 0 232 57" fill="none" xmlns="http://www.w3.org/2000/svg">
<path d="M26.8532 44.09C26.8532 47.7932 25.6232 50.8652 23.1632 53.306C20.7032 55.7468 17.6012 56.9648 13.8572 56.96C10.1564 56.96 7.05437 55.7288 4.55117 53.2664C2.04797 50.804 0.797569 47.7452 0.799969 44.09V25.91C0.762688 24.2082 1.07655 22.517 1.72195 20.9418C2.36736 19.3667 3.33046 17.9415 4.55117 16.7552C7.05437 14.2784 10.1564 13.04 13.8572 13.04C15.5726 12.9971 17.2787 13.3044 18.8714 13.9432C20.464 14.582 21.9096 15.5388 23.12 16.7552C24.3239 17.9029 25.2784 19.2864 25.9238 20.8194C26.5692 22.3524 26.8917 24.002 26.8712 25.6652L26.8532 44.09ZM19.4084 25.4204C19.4184 24.6985 19.2802 23.9822 19.0021 23.3159C18.7241 22.6496 18.3122 22.0474 17.792 21.5468C16.7499 20.5114 15.3406 19.9302 13.8716 19.9302C12.4026 19.9302 10.9932 20.5114 9.95117 21.5468C9.42365 22.0433 9.00502 22.644 8.72182 23.3108C8.43861 23.9776 8.29701 24.696 8.30597 25.4204V44.5796C8.29701 45.304 8.43861 46.0223 8.72182 46.6891C9.00502 47.3559 9.42365 47.9566 9.95117 48.4532C10.9932 49.4886 12.4026 50.0698 13.8716 50.0698C15.3406 50.0698 16.7499 49.4886 17.792 48.4532C18.3122 47.9525 18.7241 47.3504 19.0021 46.6841C19.2802 46.0178 19.4184 45.3015 19.4084 44.5796V25.4204ZM43.8884 20.7836V29.996H49.9904C52.9616 29.996 55.4324 30.956 57.4028 32.876C59.3732 34.796 60.3596 37.2272 60.362 40.1696V46.2104C60.3955 47.5545 60.1498 48.8909 59.6404 50.1351C59.1311 51.3794 58.3691 52.5044 57.4028 53.4392C55.43 55.3736 52.9592 56.3396 49.9904 56.3372H36.6164V13.6448H57.9104V20.7836H43.8884ZM53.162 40.6124C53.1756 39.6837 52.8388 38.7839 52.2188 38.0924C51.9126 37.74 51.5318 37.4602 51.104 37.2734C50.6762 37.0866 50.2121 36.9974 49.7456 37.0124H43.8776V49.4H49.7348C50.1976 49.4171 50.6585 49.3332 51.0856 49.1541C51.5127 48.9751 51.8957 48.7052 52.208 48.3632C52.8409 47.6622 53.1788 46.744 53.1512 45.8L53.162 40.6124ZM95.2819 13.6448V56.3552H87.7507V37.6352H77.0084V56.3552H69.506V13.6448H77.0084V30.3632H87.7507V13.6448H95.2819ZM114.92 56.3552H107.108L113.7 40.49L102.594 13.6448H110.892L117.606 31.4612L124.255 13.6448H132.175L114.92 56.3552ZM161.047 56.3552H153.847V20.5388H146.751C146.103 32.2532 145.514 41.2436 144.984 47.51C144.78 50.1932 143.844 52.4 142.176 54.1304C140.508 55.8608 138.348 56.7248 135.696 56.7224L133.377 56.5388V50.3144C136.387 50.3144 138.013 48.6668 138.255 45.3716C139.069 34.9172 139.68 24.3416 140.088 13.6448H161.014L161.047 56.3552ZM177.402 56.3552H168.963L176.163 40.4288C174.553 39.5928 173.226 38.2988 172.351 36.71C171.452 35.1509 170.978 33.3833 170.976 31.5836V23.9552C170.938 22.5791 171.19 21.2105 171.716 19.9384C172.242 18.6663 173.03 17.5191 174.028 16.5716C176.061 14.6204 178.623 13.6448 181.714 13.6448H195.078V56.3552H187.64V41.84H183.363L177.402 56.3552ZM178.622 31.8284C178.623 32.2127 178.708 32.5921 178.872 32.9398C179.035 33.2876 179.273 33.5951 179.569 33.8408C180.193 34.4073 181.012 34.7127 181.855 34.694H187.64V20.7836H181.844C181.001 20.7649 180.183 21.0703 179.558 21.6368C179.262 21.8825 179.024 22.19 178.861 22.5377C178.697 22.8855 178.612 23.2649 178.611 23.6492L178.622 31.8284ZM212.426 13.6448V27.008L212.066 42.0164L224.148 13.6448H231.2V56.3552H224.245V42.7508L224.605 27.9908L212.527 56.3624H205.449V13.6448H212.426ZM214.989 0.77121C214.989 3.78081 216.069 5.2856 218.229 5.2856C219.489 5.2856 220.364 4.90881 220.854 4.15521C221.343 3.40161 221.583 2.27361 221.574 0.77121H227.553C227.553 3.57441 226.771 5.85441 225.206 7.61121C223.641 9.36801 221.332 10.2428 218.28 10.2356C215.227 10.2356 212.918 9.35 211.353 7.5788C209.788 5.8076 209.006 3.5408 209.006 0.778406L214.989 0.77121Z" fill="#0E0047"/>
</svg>
