<svg xmlns="http://www.w3.org/2000/svg" viewBox="0 0 48 48"><defs><style>.cls-1,.cls-3{fill:none;}.cls-2{fill:#fff;}.cls-3{stroke:#0e0047;stroke-linecap:round;stroke-linejoin:round;stroke-width:2px;}</style></defs><title>muscle</title><g id="Layer_2" data-name="Layer 2"><g id="Layer_1-2" data-name="Layer 1"><rect class="cls-1" width="48" height="48"/><path class="cls-2" d="M38,30c-1.75,1.75-4,3-6,2-5,7-17,3-17,3s-4-5-1-21a12.68,12.68,0,0,1,6-2c3,0,2,5,2,5a4.83,4.83,0,0,1-4,0c-1,5,2,11,2,11s4-6,10-4c0,0,1-3,5-3C40,21,41,27,38,30Z"/><path class="cls-3" d="M38,30a5.57,5.57,0,0,1-6,2c-5,7-17,3-17,3s-4-5-1-21a12.68,12.68,0,0,1,6-2c3,0,2,5,2,5a4.83,4.83,0,0,1-4,0c-1,5,2,11,2,11s4-6,10-4c0,0,1-3,5-3"/></g></g></svg>