<svg width="360" height="360" viewBox="0 0 360 360" fill="none" xmlns="http://www.w3.org/2000/svg">
<path d="M22.5936 159.451L24.3756 173.783C24.8868 177.912 24.8868 182.088 24.3756 186.217L22.5936 200.549C24.1441 204.037 26.09 207.336 28.3932 210.38L34.8228 218.88L38.6604 187.974C39.3228 182.669 39.3228 177.302 38.6604 171.997L34.848 141.314C34.848 141.242 34.848 141.174 34.8228 141.102L28.3932 149.612C26.0894 152.659 24.1434 155.96 22.5936 159.451Z" fill="#8566FF"/>
<path d="M83.52 306.043L96.84 311.666C100.657 313.291 104.26 315.378 107.568 317.88L119.056 326.563C122.865 326.974 126.708 326.947 130.511 326.484L141.12 325.174L140.947 325.048L116.244 306.392C111.981 303.17 107.335 300.488 102.413 298.408L73.7244 286.276L77.8788 296.1C79.3707 299.62 81.2636 302.957 83.52 306.043Z" fill="#8566FF"/>
<path d="M51.4332 89.4564L56.16 78.336C60.9477 67.0543 68.4762 57.1463 78.0624 49.5108C76.1832 50.9796 74.3376 52.488 72.5256 54.036C66.6466 59.0499 60.5188 63.7647 54.1656 68.1624C43.1111 75.7587 34.1755 86.0476 28.2027 98.0573C22.23 110.067 19.4173 123.401 20.0304 136.8L37.2744 113.994C40.1154 104.866 44.9519 96.484 51.4332 89.4564Z" fill="#8566FF"/>
<path d="M206.114 338.098L194.134 336.6C184.819 338.693 175.156 338.693 165.841 336.6L137.426 340.124C148.707 347.345 161.639 351.579 175.006 352.427C188.373 353.275 201.737 350.71 213.84 344.974C220.79 341.686 227.905 338.758 235.156 336.2C237.647 335.322 240.114 334.38 242.557 333.374C231.004 338.005 218.466 339.63 206.114 338.098Z" fill="#8566FF"/>
<path d="M33.4044 240.908L19.8 222.919L19.206 227.714C15.6528 256.324 31.7124 284.155 58.2732 295.394L62.7228 297.274L53.9424 276.509C48.2277 272.333 43.4488 267.009 39.912 260.879C36.3752 254.748 34.1586 247.946 33.4044 240.908Z" fill="#8566FF"/>
<path d="M167.926 336.355C175.944 335.354 184.056 335.354 192.074 336.355L194.134 336.611C198.804 335.56 203.345 333.997 207.673 331.952C215.069 328.455 222.639 325.338 230.353 322.614C232.616 321.815 234.859 320.959 237.082 320.047C227.819 323.724 217.781 325.017 207.889 323.809L193.849 322.067C184.654 320.926 175.353 320.926 166.158 322.067L141.12 325.174C148.459 330.689 156.885 334.584 165.841 336.6L167.926 336.355Z" fill="#E4217F"/>
<path d="M119.056 326.567C112.03 325.802 105.241 323.583 99.1201 320.05C92.9995 316.517 87.6817 311.748 83.5056 306.047L62.7372 297.266L64.6164 301.716C74.8044 325.8 98.658 341.28 124.369 341.28C127.017 341.28 129.662 341.115 132.289 340.787L137.43 340.15C135.671 339.022 133.944 337.822 132.25 336.55L119.056 326.567Z" fill="#E4217F"/>
<path d="M62.3196 80.0172C58.3531 82.7517 54.702 85.9174 51.4332 89.4564L50.6268 91.3716C47.4806 98.8115 43.4275 105.834 38.5596 112.28L37.2744 113.983C34.5448 122.753 33.7091 132.003 34.8228 141.12L50.04 120.96C55.6257 113.569 60.2751 105.514 63.882 96.9804L69.48 83.7756C73.3361 74.6568 79.4576 66.6741 87.264 60.5844C85.4328 62.01 83.6328 63.4764 81.864 64.9836C75.7332 70.2216 68.976 75.4092 62.3196 80.0172Z" fill="#E4217F"/>
<path d="M33.4044 240.908L42.1164 252.428C44.6242 255.743 46.7113 259.357 48.33 263.185L53.9568 276.505C57.0434 278.755 60.3785 280.641 63.8964 282.128L73.7244 286.283L61.5888 257.591C59.5099 252.668 56.8291 248.023 53.6076 243.76L34.8228 218.88L33.5088 229.471C33.0361 233.267 33.0011 237.105 33.4044 240.908Z" fill="#E4217F"/>
<path d="M22.5936 159.451L20.5596 143.086C20.2932 140.983 20.1168 138.888 20.0304 136.8L16.92 140.926C-0.467972 163.933 -0.467972 196.067 16.92 219.067L19.8 222.919L22.5792 200.549C19.7163 194.076 18.2386 187.076 18.2411 179.998C18.2436 172.921 19.7262 165.922 22.5936 159.451Z" fill="#E4217F"/>
<path d="M77.8788 296.1L73.7244 286.276L63.8964 282.121C60.3785 280.634 57.0433 278.747 53.9568 276.498L62.7372 297.263L83.52 306.043C81.2636 302.957 79.3707 299.62 77.8788 296.1Z" fill="#0E0047"/>
<path d="M22.5936 159.451C24.1434 155.96 26.0894 152.659 28.3932 149.612L34.8228 141.12C33.7117 132.009 34.5474 122.765 37.2744 114.001L20.0304 136.8C20.124 138.89 20.3004 140.989 20.5596 143.096L22.5936 159.451Z" fill="#0E0047"/>
<path d="M141.12 325.174L130.529 326.488C126.726 326.951 122.883 326.978 119.074 326.567L132.264 336.535C133.944 337.812 135.671 339.012 137.444 340.135L165.841 336.6C156.885 334.584 148.459 330.689 141.12 325.174Z" fill="#0E0047"/>
<path d="M33.5088 229.486L34.8228 218.88L28.3932 210.38C26.09 207.336 24.1441 204.037 22.5936 200.549L19.8 222.919L33.39 240.919C32.9917 237.116 33.0316 233.28 33.5088 229.486Z" fill="#0E0047"/>
<path d="M180 14.4C141.946 14.3644 105.052 27.496 75.5784 51.5664C67.1518 58.8995 60.504 68.0537 56.1384 78.336L51.4296 89.4564C60.0156 80.1504 64.4472 79.7832 81.396 65.3724C96.2309 52.5785 113.416 42.7963 131.99 36.5724C147.469 31.406 163.682 28.7812 180 28.8C263.52 28.8 331.2 96.48 331.2 180C331.2 225.472 311.123 266.256 279.36 293.976C276.433 296.136 262.472 309.488 238.072 319.644L237.96 319.68L237.838 319.727C229.198 323.327 222.592 324.889 207.67 331.942C203.342 333.986 198.803 335.548 194.134 336.6L206.114 338.087C217.781 339.535 229.626 338.164 240.653 334.087C258.245 327.126 274.518 317.208 288.767 304.762C323.572 274.392 345.6 229.723 345.6 180C345.6 88.686 271.31 14.4 180 14.4Z" fill="#0E0047"/>
</svg>
